<svg width="1500" height="1500" viewBox="0 0 1500 1500" fill="none" xmlns="http://www.w3.org/2000/svg">
<circle cx="750" cy="750" r="750" fill="white"/>
<g filter="url(#filter0_dd_628_29)">
<path d="M491.5 658.8V237.857C491.5 226.491 495.122 215.59 501.568 207.553C508.015 199.515 516.758 195 525.875 195C534.992 195 543.735 199.515 550.182 207.553C556.628 215.59 560.25 226.491 560.25 237.857V658.8C580.365 649.934 597.779 633.507 610.092 611.785C622.405 590.063 629.011 564.114 629 537.514V237.857C629 226.491 632.622 215.59 639.068 207.553C645.515 199.515 654.258 195 663.375 195C672.492 195 681.235 199.515 687.682 207.553C694.128 215.59 697.75 226.491 697.75 237.857V537.514C697.758 586.914 684.076 634.799 659.02 673.067C633.964 711.335 599.072 737.634 560.25 747.514V1352.14C560.25 1363.51 556.628 1374.41 550.182 1382.45C543.735 1390.48 534.992 1395 525.875 1395C516.758 1395 508.015 1390.48 501.568 1382.45C495.122 1374.41 491.5 1363.51 491.5 1352.14V747.514C452.678 737.634 417.786 711.335 392.73 673.067C367.674 634.799 353.992 586.914 354 537.514V237.857C354 226.491 357.622 215.59 364.068 207.553C370.515 199.515 379.258 195 388.375 195C397.492 195 406.235 199.515 412.682 207.553C419.128 215.59 422.75 226.491 422.75 237.857V537.514C422.739 564.114 429.345 590.063 441.658 611.785C453.971 633.507 471.385 649.934 491.5 658.8V658.8ZM938.375 876C840.819 848.743 766.5 707.743 766.5 537.857C766.5 348.429 858.831 195 972.75 195C1086.67 195 1179 348.429 1179 537.857C1179 707.743 1104.68 848.743 1007.12 876V1352.14C1007.12 1363.51 1003.5 1374.41 997.057 1382.45C990.61 1390.48 981.867 1395 972.75 1395C963.633 1395 954.89 1390.48 948.443 1382.45C941.997 1374.41 938.375 1363.51 938.375 1352.14V876ZM972.75 795C1043.7 795 1110.25 684.429 1110.25 537.857C1110.25 391.286 1043.7 280.714 972.75 280.714C901.8 280.714 835.25 391.286 835.25 537.857C835.25 684.429 901.8 795 972.75 795Z" fill="#0E9E2C"/>
</g>
<defs>
<filter id="filter0_dd_628_29" x="350" y="195" width="833" height="1208" filterUnits="userSpaceOnUse" color-interpolation-filters="sRGB">
<feFlood flood-opacity="0" result="BackgroundImageFix"/>
<feColorMatrix in="SourceAlpha" type="matrix" values="0 0 0 0 0 0 0 0 0 0 0 0 0 0 0 0 0 0 127 0" result="hardAlpha"/>
<feOffset dy="4"/>
<feGaussianBlur stdDeviation="2"/>
<feComposite in2="hardAlpha" operator="out"/>
<feColorMatrix type="matrix" values="0 0 0 0 0 0 0 0 0 0 0 0 0 0 0 0 0 0 0.25 0"/>
<feBlend mode="normal" in2="BackgroundImageFix" result="effect1_dropShadow_628_29"/>
<feColorMatrix in="SourceAlpha" type="matrix" values="0 0 0 0 0 0 0 0 0 0 0 0 0 0 0 0 0 0 127 0" result="hardAlpha"/>
<feOffset dy="4"/>
<feGaussianBlur stdDeviation="2"/>
<feComposite in2="hardAlpha" operator="out"/>
<feColorMatrix type="matrix" values="0 0 0 0 0 0 0 0 0 0 0 0 0 0 0 0 0 0 0.25 0"/>
<feBlend mode="normal" in2="effect1_dropShadow_628_29" result="effect2_dropShadow_628_29"/>
<feBlend mode="normal" in="SourceGraphic" in2="effect2_dropShadow_628_29" result="shape"/>
</filter>
</defs>
</svg>
