<svg width="1200" height="805" viewBox="0 0 1200 805" fill="none" xmlns="http://www.w3.org/2000/svg">
<path d="M366.512 244.427V22.5861C366.512 16.5959 368.707 10.851 372.614 6.61532C376.521 2.3796 381.82 0 387.346 0C392.871 0 398.17 2.3796 402.077 6.61532C405.984 10.851 408.179 16.5959 408.179 22.5861V244.427C420.37 239.754 430.924 231.097 438.386 219.649C445.849 208.202 449.853 194.526 449.846 180.508V22.5861C449.846 16.5959 452.041 10.851 455.948 6.61532C459.855 2.3796 465.154 0 470.679 0C476.204 0 481.503 2.3796 485.411 6.61532C489.318 10.851 491.512 16.5959 491.512 22.5861V180.508C491.517 206.542 483.225 231.778 468.04 251.946C452.854 272.113 431.708 285.973 408.179 291.18V609.825C408.179 615.815 405.984 621.56 402.077 625.796C398.17 630.031 392.871 632.411 387.346 632.411C381.82 632.411 376.521 630.031 372.614 625.796C368.707 621.56 366.512 615.815 366.512 609.825V291.18C342.984 285.973 321.838 272.113 306.652 251.946C291.466 231.778 283.174 206.542 283.179 180.508V22.5861C283.179 16.5959 285.374 10.851 289.281 6.61532C293.188 2.3796 298.487 0 304.012 0C309.538 0 314.837 2.3796 318.744 6.61532C322.651 10.851 324.846 16.5959 324.846 22.5861V180.508C324.839 194.526 328.843 208.202 336.305 219.649C343.768 231.097 354.322 239.754 366.512 244.427V244.427ZM637.346 358.893C578.221 344.528 533.179 270.22 533.179 180.689C533.179 80.8583 589.137 0 658.179 0C727.221 0 783.179 80.8583 783.179 180.689C783.179 270.22 738.137 344.528 679.012 358.893V609.825C679.012 615.815 676.818 621.56 672.911 625.796C669.004 630.031 663.704 632.411 658.179 632.411C652.654 632.411 647.355 630.031 643.448 625.796C639.541 621.56 637.346 615.815 637.346 609.825V358.893ZM658.179 316.206C701.179 316.206 741.512 257.933 741.512 180.689C741.512 103.444 701.179 45.1722 658.179 45.1722C615.179 45.1722 574.846 103.444 574.846 180.689C574.846 257.933 615.179 316.206 658.179 316.206Z" fill="black"/>
<path d="M61.3 695C61.3 699.267 60.3 703.167 58.3 706.7C56.3667 710.167 53.4 712.967 49.4 715.1C45.4667 717.167 40.6333 718.2 34.9 718.2H25.2V742H5.6V671.5H34.9C40.5667 671.5 45.3667 672.5 49.3 674.5C53.3 676.5 56.3 679.267 58.3 682.8C60.3 686.333 61.3 690.4 61.3 695ZM33 702.6C38.5333 702.6 41.3 700.067 41.3 695C41.3 689.867 38.5333 687.3 33 687.3H25.2V702.6H33ZM112.974 742.7C106.374 742.7 100.308 741.167 94.7742 738.1C89.2409 734.967 84.8409 730.667 81.5742 725.2C78.3742 719.667 76.7742 713.433 76.7742 706.5C76.7742 699.567 78.3742 693.367 81.5742 687.9C84.8409 682.367 89.2409 678.067 94.7742 675C100.308 671.933 106.374 670.4 112.974 670.4C119.641 670.4 125.708 671.933 131.174 675C136.708 678.067 141.074 682.367 144.274 687.9C147.474 693.367 149.074 699.567 149.074 706.5C149.074 713.433 147.474 719.667 144.274 725.2C141.074 730.667 136.708 734.967 131.174 738.1C125.641 741.167 119.574 742.7 112.974 742.7ZM112.974 724.5C117.974 724.5 121.908 722.867 124.774 719.6C127.708 716.333 129.174 711.967 129.174 706.5C129.174 700.9 127.708 696.5 124.774 693.3C121.908 690.033 117.974 688.4 112.974 688.4C107.908 688.4 103.941 690.033 101.074 693.3C98.2076 696.5 96.7742 700.9 96.7742 706.5C96.7742 712.033 98.2076 716.433 101.074 719.7C103.941 722.9 107.908 724.5 112.974 724.5ZM203.585 742L189.585 716H187.485V742H167.885V671.5H198.785C204.452 671.5 209.252 672.5 213.185 674.5C217.118 676.433 220.085 679.133 222.085 682.6C224.085 686 225.085 689.833 225.085 694.1C225.085 698.9 223.752 703.133 221.085 706.8C218.485 710.4 214.652 712.967 209.585 714.5L225.485 742H203.585ZM187.485 702.6H197.185C199.852 702.6 201.852 701.967 203.185 700.7C204.518 699.433 205.185 697.6 205.185 695.2C205.185 692.933 204.485 691.167 203.085 689.9C201.752 688.567 199.785 687.9 197.185 687.9H187.485V702.6ZM263.598 671.5V742H243.998V671.5H263.598ZM329.36 730.5H304.36L300.56 742H279.96L305.66 671.5H328.26L353.86 742H333.16L329.36 730.5ZM324.46 715.5L316.86 692.7L309.36 715.5H324.46ZM375.048 671.5H394.848L383.348 699.7H370.248L375.048 671.5ZM441.419 742.7C433.219 742.7 426.485 740.767 421.219 736.9C415.952 732.967 413.119 727.367 412.719 720.1H433.619C433.819 722.567 434.552 724.367 435.819 725.5C437.085 726.633 438.719 727.2 440.719 727.2C442.519 727.2 443.985 726.767 445.119 725.9C446.319 724.967 446.919 723.7 446.919 722.1C446.919 720.033 445.952 718.433 444.019 717.3C442.085 716.167 438.952 714.9 434.619 713.5C430.019 711.967 426.285 710.5 423.419 709.1C420.619 707.633 418.152 705.533 416.019 702.8C413.952 700 412.919 696.367 412.919 691.9C412.919 687.367 414.052 683.5 416.319 680.3C418.585 677.033 421.719 674.567 425.719 672.9C429.719 671.233 434.252 670.4 439.319 670.4C447.519 670.4 454.052 672.333 458.919 676.2C463.852 680 466.485 685.367 466.819 692.3H445.519C445.452 690.167 444.785 688.567 443.519 687.5C442.319 686.433 440.752 685.9 438.819 685.9C437.352 685.9 436.152 686.333 435.219 687.2C434.285 688.067 433.819 689.3 433.819 690.9C433.819 692.233 434.319 693.4 435.319 694.4C436.385 695.333 437.685 696.167 439.219 696.9C440.752 697.567 443.019 698.433 446.019 699.5C450.485 701.033 454.152 702.567 457.019 704.1C459.952 705.567 462.452 707.667 464.519 710.4C466.652 713.067 467.719 716.467 467.719 720.6C467.719 724.8 466.652 728.567 464.519 731.9C462.452 735.233 459.419 737.867 455.419 739.8C451.485 741.733 446.819 742.7 441.419 742.7ZM557.671 742L535.571 711.1V742H515.971V671.5H535.571V701.9L557.471 671.5H580.071L554.171 705.7L581.371 742H557.671ZM618.13 671.5V742H598.53V671.5H618.13ZM692.391 671.5V687.1H673.591V742H653.991V687.1H635.391V671.5H692.391ZM707.243 706.6C707.243 699.667 708.676 693.5 711.543 688.1C714.476 682.633 718.61 678.4 723.943 675.4C729.276 672.333 735.41 670.8 742.343 670.8C751.143 670.8 758.543 673.167 764.543 677.9C770.543 682.567 774.41 688.933 776.143 697H755.043C753.776 694.333 752.01 692.3 749.743 690.9C747.543 689.5 744.976 688.8 742.043 688.8C737.51 688.8 733.876 690.433 731.143 693.7C728.476 696.9 727.143 701.2 727.143 706.6C727.143 712.067 728.476 716.433 731.143 719.7C733.876 722.9 737.51 724.5 742.043 724.5C744.976 724.5 747.543 723.8 749.743 722.4C752.01 721 753.776 718.967 755.043 716.3H776.143C774.41 724.367 770.543 730.767 764.543 735.5C758.543 740.167 751.143 742.5 742.343 742.5C735.41 742.5 729.276 741 723.943 738C718.61 734.933 714.476 730.7 711.543 725.3C708.676 719.833 707.243 713.6 707.243 706.6ZM858.524 671.5V742H838.924V713.7H815.024V742H795.424V671.5H815.024V698H838.924V671.5H858.524ZM899.341 687.2V698.7H921.841V713.6H899.341V726.3H924.841V742H879.741V671.5H924.841V687.2H899.341ZM1009.83 742H990.226L964.126 702.6V742H944.526V671.5H964.126L990.226 711.4V671.5H1009.83V742Z" fill="#FF0000"/>
</svg>
